<svg width="2308" height="640" viewBox="0 0 2308 640" fill="none" xmlns="http://www.w3.org/2000/svg">
<path fill-rule="evenodd" clip-rule="evenodd" d="M229.273 295.908C288.285 295.908 336.235 344.181 336.235 403.194C336.235 462.193 288.285 510.142 229.273 510.142C170.273 510.142 122 462.193 122 403.194C121.987 344.181 170.26 295.908 229.273 295.908ZM541.65 295.908C600.649 295.908 648.624 344.181 648.624 403.194C648.624 462.193 600.662 510.142 541.65 510.142C482.637 510.142 434.377 462.193 434.377 403.194C434.364 344.181 482.637 295.908 541.65 295.908ZM213.489 137.508H525.865L363.056 403.194C361.474 277.296 309.413 191.151 213.489 137.508ZM525.865 137.508H838.242L675.433 403.194C674.175 277.296 621.79 191.151 525.865 137.508ZM1881.7 497.834H1955.24L2008.87 377.63L2061.89 497.834H2138.24L2048.31 313.871L2135.72 137.495H2060.32L2010.77 251.084L1962.49 137.495H1885.81L1970.7 313.871L1881.7 497.834ZM1685.47 497.834H1875.1V436.941H1752.68V337.865H1864.06V280.772H1752.68V197.467H1872.27V137.508H1685.48L1685.47 497.834ZM1421.03 497.834H1484.78L1482.89 270.033L1578.49 497.834H1647.59V137.508H1583.86L1585.75 364.7L1490.76 137.508H1421.03V497.834ZM1226.67 317.684C1226.67 223.653 1228.55 182.008 1275.57 182.008C1322.59 182.008 1324.48 223.666 1324.48 317.684C1324.48 411.391 1322.59 452.725 1276.19 452.725C1229.19 452.725 1226.67 411.378 1226.67 317.684ZM1157.57 317.684C1157.57 388.356 1163.25 436.007 1179.66 460.935C1202.06 494.708 1229.51 506.381 1275.57 506.381C1321.65 506.381 1349.11 494.708 1371.49 460.935C1387.91 435.372 1393.89 388.058 1393.89 317.684C1393.89 246.688 1387.91 199.672 1371.49 174.433C1349.1 140.362 1321.64 129 1275.57 129C1229.51 129 1202.06 140.362 1179.66 174.433C1163.25 199.361 1157.57 246.688 1157.57 317.684ZM1003.91 497.834H1072.06V344.817L1166.09 137.521H1092.89L1038.61 273.198L983.387 137.521H908.292L1003.91 344.817V497.834ZM2164.76 453.685C2158.76 453.685 2153.39 455.89 2149.29 459.988C2145.19 464.087 2142.68 469.768 2142.68 475.773C2142.68 481.453 2144.88 486.797 2149.29 491.22C2153.39 495.318 2158.76 497.834 2164.76 497.834C2170.44 497.834 2176.11 495.331 2180.52 491.22C2184.62 487.121 2186.85 481.752 2186.85 475.773C2186.85 469.768 2184.62 464.398 2180.52 460.3C2178.5 458.166 2176.05 456.476 2173.34 455.337C2170.63 454.198 2167.71 453.636 2164.76 453.685ZM2183.99 475.773C2183.99 480.818 2182.1 485.552 2178.3 489.326C2174.63 492.771 2169.79 494.69 2164.75 494.696C2159.68 494.696 2154.95 492.802 2151.17 489.015C2147.6 485.525 2145.56 480.764 2145.49 475.773C2145.49 470.702 2147.7 465.669 2151.47 461.869C2153.22 460.146 2155.29 458.787 2157.57 457.87C2159.85 456.953 2162.28 456.496 2164.74 456.526C2170.08 456.526 2174.82 458.406 2178.62 462.206C2182.12 465.669 2183.99 470.403 2183.99 475.773ZM2165.39 462.829H2155.92V487.757H2160.65V477.018H2165.39L2170.43 487.757H2175.8L2170.11 476.382C2173.58 475.773 2175.8 473.244 2175.8 469.443C2175.8 465.034 2172.34 462.829 2165.39 462.829ZM2164.43 465.669C2168.86 465.669 2171.07 466.94 2171.07 470.079C2171.07 472.919 2168.86 474.177 2164.76 474.177H2160.67V465.669H2164.43Z" fill="black"/>
</svg>
